<svg width="91.000000" height="91.000000" viewBox="0 0 91 91" fill="none" xmlns="http://www.w3.org/2000/svg" xmlns:xlink="http://www.w3.org/1999/xlink">
	<desc>
			Created with Pixso.
	</desc>
	<defs/>
	<circle id="Ellipse" cx="45.500000" cy="45.500000" r="43.500000" fill="#FFFFFF" fill-opacity="0"/>
	<circle id="Ellipse" cx="45.500000" cy="45.500000" r="42.500000" stroke="#7D806A" stroke-opacity="1.000000" stroke-width="2.000000" stroke-linejoin="round"/>
	<path id="Vector" d="M64.93 30.93L64.93 56.96C64.93 57.05 64.91 57.13 64.88 57.2C64.84 57.27 64.78 57.33 64.71 57.37L64.47 56.97L64.7 57.37L53.97 63.9C53.89 63.96 53.79 64 53.69 64C53.63 63.99 53.58 63.98 53.53 63.96L27.4 60.39C27.29 60.38 27.18 60.32 27.11 60.23C27.03 60.14 26.99 60.03 27 59.92L27 33.62C27 33.5 27.04 33.38 27.13 33.29C27.22 33.2 27.33 33.15 27.46 33.15L41.14 27.06C41.23 27.01 41.34 26.99 41.44 27L44.7 27.46C44.73 27.45 44.76 27.45 44.79 27.46L52.97 28.58C53.05 28.58 53.12 28.6 53.19 28.64L64.45 30.21C64.46 30.21 64.46 30.21 64.47 30.21C64.52 30.21 64.57 30.22 64.61 30.23C64.67 30.24 64.72 30.27 64.77 30.3C64.83 30.33 64.89 30.39 64.93 30.45C64.96 30.51 64.98 30.57 64.99 30.63C65 30.69 65 30.75 64.98 30.81C64.97 30.85 64.95 30.89 64.93 30.93ZM43.33 28.18L41.42 27.92L29.16 33.38L33.22 33.94L43.33 28.18ZM41.15 35.02L34.78 34.15L44.8 28.45L51.46 29.36L41.15 35.02ZM42.72 35.24L53.03 29.54L63.12 30.95L60.46 32.57L53.61 36.73L42.72 35.24ZM40.63 35.99L40.18 47.07L36.73 44.53C36.65 44.47 36.55 44.44 36.45 44.44C36.35 44.44 36.25 44.47 36.16 44.53L32.87 46.6L33.47 35.09L40.63 35.99ZM54.17 37.55L54.17 62.68L64.03 56.69L64.03 31.54L54.17 37.55ZM27.93 34.16L32.59 34.8L31.89 47.42C31.88 47.51 31.89 47.6 31.93 47.68C31.97 47.76 32.03 47.83 32.1 47.88C32.18 47.93 32.27 47.95 32.36 47.95C32.45 47.95 32.54 47.93 32.61 47.88L36.43 45.47L40.3 48.34C40.38 48.4 40.48 48.44 40.59 48.44C40.71 48.45 40.83 48.4 40.92 48.32C41.02 48.23 41.07 48.12 41.08 47.99L41.07 47.99L41.57 36.03L53.22 37.63L53.22 62.97L27.93 59.49L27.93 34.16Z" fill="#7D806A" fill-opacity="1.000000" fill-rule="evenodd"/>
	<path id="Vector" d="M53.76 36.75C53.87 36.76 53.98 36.82 54.06 36.9C54.13 36.99 54.17 37.1 54.17 37.22L54.17 63.5C54.17 63.63 54.12 63.75 54.03 63.84C53.94 63.92 53.82 63.97 53.7 63.97L53.6 63.97L27.4 60.39C27.29 60.38 27.18 60.32 27.11 60.23C27.03 60.14 26.99 60.03 27 59.92L27 33.62C27 33.5 27.04 33.38 27.13 33.29C27.22 33.2 27.34 33.15 27.47 33.15L27.57 33.15L27.57 33.16L53.76 36.75ZM53.76 36.75L53.7 37.21M27.4 60.39L27.47 59.92M27.93 34.16L27.93 59.49L53.23 62.97L53.23 37.63L27.93 34.16ZM54.17 37.52L54.17 62.68L64.03 56.69L64.03 31.5L54.17 37.52ZM53.45 36.83L64.18 30.3C64.26 30.24 64.36 30.21 64.47 30.21C64.53 30.21 64.59 30.22 64.65 30.25C64.7 30.27 64.76 30.31 64.8 30.35C64.84 30.39 64.88 30.45 64.9 30.5C64.92 30.56 64.93 30.62 64.93 30.68L64.93 56.96C64.93 57.05 64.91 57.13 64.88 57.2C64.84 57.27 64.78 57.33 64.71 57.37L64.47 56.97L64.7 57.37L53.97 63.9C53.89 63.96 53.79 64 53.69 64C53.56 63.99 53.45 63.94 53.36 63.85C53.27 63.77 53.22 63.65 53.22 63.52L53.22 37.23C53.22 37.15 53.24 37.06 53.28 36.99C53.32 36.92 53.38 36.86 53.45 36.82L53.7 37.23L53.45 36.83ZM53.6 36.73L63.13 30.95L41.42 27.92L29.16 33.38L53.6 36.73ZM27.44 34.09C27.34 34.08 27.25 34.03 27.18 33.97C27.11 33.9 27.07 33.81 27.05 33.71C27.03 33.61 27.05 33.51 27.09 33.42C27.14 33.34 27.21 33.27 27.3 33.22L41.14 27.06C41.23 27.01 41.34 26.99 41.44 27L64.55 30.22C64.63 30.23 64.7 30.26 64.77 30.3C64.83 30.33 64.89 30.39 64.93 30.45C64.96 30.51 64.98 30.57 64.99 30.63C65 30.69 65 30.75 64.98 30.81C64.97 30.87 64.94 30.93 64.9 30.98C64.87 31.03 64.82 31.07 64.77 31.1L64.53 30.7L64.76 31.1L54.03 37.63C53.98 37.66 53.93 37.69 53.87 37.71C53.81 37.72 53.74 37.72 53.68 37.71L53.63 37.68L27.44 34.09ZM27.3 33.22L27.49 33.65M41.19 35.04C41.25 35.05 41.31 35.07 41.36 35.1C41.41 35.13 41.46 35.17 41.49 35.22C41.53 35.27 41.56 35.32 41.57 35.38C41.59 35.44 41.59 35.5 41.59 35.56L41.07 47.99L40.61 47.99L41.08 47.99C41.07 48.12 41.02 48.23 40.92 48.32C40.83 48.4 40.71 48.45 40.59 48.44C40.48 48.44 40.38 48.4 40.3 48.34L36.43 45.47L32.61 47.88C32.54 47.93 32.45 47.95 32.36 47.95C32.27 47.95 32.18 47.93 32.1 47.88C32.03 47.83 31.97 47.76 31.93 47.68C31.89 47.6 31.88 47.51 31.89 47.42L32.61 34.37C32.62 34.24 32.67 34.13 32.77 34.04C32.86 33.96 32.98 33.92 33.1 33.92L33.15 33.94L41.19 35.04ZM41.19 35.04L41.12 35.51M32.61 47.88L32.36 47.48M32.61 34.37L33.08 34.37M33.48 34.93L32.87 46.6L36.16 44.53C36.25 44.47 36.35 44.44 36.45 44.44C36.55 44.44 36.65 44.47 36.73 44.53L40.18 47.07L40.64 35.92L33.48 34.93ZM41.03 35.09L51.46 29.36L44.8 28.45L34.51 34.31L34.51 34.27L41.03 35.09ZM33.02 35.03C32.94 35.03 32.87 35 32.81 34.96C32.75 34.92 32.7 34.86 32.66 34.8C32.63 34.74 32.61 34.69 32.6 34.62C32.59 34.56 32.6 34.5 32.61 34.44C32.63 34.38 32.66 34.33 32.69 34.28C32.73 34.23 32.78 34.19 32.83 34.16L44.46 27.54C44.56 27.47 44.68 27.44 44.79 27.46L52.97 28.58C53.05 28.58 53.13 28.6 53.2 28.65C53.27 28.69 53.32 28.75 53.36 28.82C53.39 28.87 53.41 28.93 53.42 28.99C53.42 29.06 53.42 29.12 53.4 29.18C53.38 29.24 53.35 29.29 53.32 29.34C53.28 29.39 53.23 29.43 53.17 29.46L41.39 35.97C41.3 36.03 41.19 36.05 41.09 36.04L41.06 36.04L33.02 35.03ZM32.83 34.16L33.07 34.57M53.17 29.46L52.95 29.04" stroke="#7D806A" stroke-opacity="1.000000" stroke-width="1.500000"/>
</svg>
