<svg width="91.000000" height="91.000000" viewBox="0 0 91 91" fill="none" xmlns="http://www.w3.org/2000/svg" xmlns:xlink="http://www.w3.org/1999/xlink">
	<desc>
			Created with Pixso.
	</desc>
	<defs/>
	<circle id="Ellipse" cx="45.500000" cy="45.500000" r="43.500000" fill="#FFFFFF" fill-opacity="0"/>
	<circle id="Ellipse" cx="45.500000" cy="45.500000" r="42.500000" stroke="#7D806A" stroke-opacity="1.000000" stroke-width="2.000000" stroke-linejoin="round"/>
	<path id="Vector" d="M36.23 67.27C39.42 66.6 42.42 65.14 44.93 62.98C46.49 61.75 47.97 60.42 49.35 59C51.4 56.9 53.23 54.6 54.83 52.12C61.18 42.4 63.28 31.79 60.07 25.7C60 25.56 59.89 25.45 59.77 25.37C59.64 25.28 59.5 25.23 59.35 25.21C59.24 25.2 59.14 25.2 59.04 25.23C52.15 24.9 43.34 31.11 37.04 40.75C30.68 50.47 28.57 61.09 31.8 67.19C31.88 67.33 31.99 67.45 32.12 67.53C32.26 67.62 32.41 67.66 32.57 67.67C32.74 67.67 32.91 67.66 33.07 67.65C33.16 67.69 33.26 67.7 33.36 67.7C34.33 67.63 35.29 67.48 36.23 67.27ZM57 27.21C52.66 32.16 40.21 47.25 32.98 65.16C30.91 59.55 33.14 50.2 38.63 41.78C43.88 33.74 51.11 28.06 57 27.21ZM54.2 49.52C49.99 49.88 45.82 50.6 41.74 51.68C43.8 48.11 45.95 44.81 48 41.84C48.08 41.82 48.15 41.79 48.22 41.75C51.47 40.26 55.01 39.47 58.58 39.46C57.68 42.72 56.2 46.17 54.2 49.52ZM59.03 37.6C59.82 33.91 59.8 30.54 58.9 27.94C57.29 29.72 53.92 33.63 50.02 39.01C52.87 38.04 55.87 37.55 58.88 37.57C58.93 37.58 58.98 37.59 59.03 37.6ZM48.52 57.16C44.09 61.93 39.1 65.07 34.79 65.7C36.45 61.61 38.39 57.67 40.44 53.97C40.5 53.97 40.56 53.96 40.62 53.94C44.65 52.78 48.77 51.98 52.93 51.53C51.57 53.58 50.08 55.47 48.52 57.16Z" fill="#7D806A" fill-opacity="1.000000" fill-rule="evenodd"/>
	<path id="Vector" d="M32.57 67.67C32.41 67.66 32.26 67.62 32.12 67.53C31.99 67.45 31.88 67.33 31.8 67.19C28.57 61.09 30.68 50.47 37.04 40.75C43.4 31.03 52.3 24.79 59.22 25.24C59.38 25.25 59.54 25.3 59.67 25.38C59.81 25.47 59.92 25.59 60 25.73C63.21 31.82 61.11 42.43 54.75 52.15C52.11 56.29 48.79 59.95 44.93 62.98C41.48 65.95 37.1 67.61 32.57 67.67ZM53.18 51.16C58.91 42.39 61.08 32.62 58.57 27.1C52.45 27.04 44.36 33.01 38.63 41.78C32.91 50.54 30.74 60.31 33.25 65.83C39.37 65.89 47.46 59.92 53.18 51.16ZM33.36 67.7C33.21 67.7 33.06 67.66 32.92 67.59C32.79 67.51 32.67 67.41 32.59 67.28C32.5 67.16 32.44 67.01 32.42 66.86C32.4 66.71 32.42 66.56 32.48 66.42C41.14 44.04 58.32 25.74 58.54 25.5C58.64 25.39 58.77 25.31 58.91 25.26C59.05 25.21 59.2 25.19 59.35 25.21C59.5 25.23 59.64 25.28 59.77 25.37C59.89 25.45 60 25.56 60.07 25.7C63.28 31.79 61.18 42.4 54.83 52.12C52.17 56.25 48.84 59.89 44.97 62.91C41.69 65.68 37.63 67.36 33.36 67.7ZM53.18 51.16C58.71 42.75 60.86 33.52 58.91 27.93C55.24 31.99 42.25 47.35 34.79 65.7C40.72 64.84 47.92 59.22 53.18 51.16M54.32 51.4C49.69 51.8 45.1 52.66 40.62 53.94C40.38 54.01 40.12 53.97 39.9 53.84C39.69 53.72 39.53 53.51 39.47 53.27C39.43 53.15 39.42 53.02 39.44 52.9C39.46 52.78 39.5 52.66 39.56 52.55C39.62 52.45 39.71 52.35 39.81 52.28C39.91 52.2 40.02 52.15 40.14 52.12C44.77 50.79 49.52 49.91 54.32 49.51C54.52 49.51 54.71 49.57 54.87 49.69C55.03 49.8 55.15 49.96 55.22 50.15C55.28 50.33 55.28 50.54 55.22 50.73C55.16 50.92 55.05 51.08 54.89 51.2C54.73 51.33 54.53 51.4 54.32 51.4ZM58.7 39.46C55.09 39.46 51.51 40.24 48.22 41.75C48 41.88 47.74 41.91 47.5 41.85C47.25 41.79 47.04 41.63 46.92 41.42C46.79 41.2 46.75 40.94 46.82 40.7C46.88 40.45 47.04 40.25 47.26 40.12C50.9 38.41 54.88 37.54 58.88 37.57C59.01 37.59 59.13 37.63 59.23 37.69C59.34 37.75 59.44 37.83 59.51 37.93C59.59 38.03 59.64 38.14 59.67 38.26C59.7 38.38 59.71 38.51 59.69 38.63C59.66 38.87 59.55 39.1 59.36 39.26C59.17 39.4 58.93 39.47 58.7 39.46Z" stroke="#7D806A" stroke-opacity="1.000000" stroke-width="1.000000"/>
</svg>
