<svg width="24.000000" height="24.000000" viewBox="0 0 24 24" fill="none" xmlns="http://www.w3.org/2000/svg" xmlns:xlink="http://www.w3.org/1999/xlink">
	<desc>
			Created with Pixso.
	</desc>
	<defs>
		<clipPath id="clip14_179">
			<rect id="TikTok / Negative" rx="0.000000" width="23.000000" height="23.000000" transform="translate(0.500000 0.500000)" fill="white" fill-opacity="0"/>
		</clipPath>
	</defs>
	<rect id="TikTok / Negative" rx="0.000000" width="23.000000" height="23.000000" transform="translate(0.500000 0.500000)" fill="#FFFFFF" fill-opacity="0"/>
	<g clip-path="url(#clip14_179)">
		<path id="Vector" d="M17.07 0L13.02 0L13.02 16.34C13.02 18.29 11.47 19.89 9.53 19.89C7.6 19.89 6.04 18.29 6.04 16.34C6.04 14.43 7.56 12.86 9.43 12.79L9.43 8.69C5.31 8.76 2 12.13 2 16.34C2 20.59 5.38 24 9.57 24C13.75 24 17.14 20.55 17.14 16.34L17.14 7.96C18.66 9.07 20.52 9.73 22.5 9.77L22.5 5.66C19.45 5.56 17.07 3.06 17.07 0Z" fill="#7D806A" fill-opacity="1.000000" fill-rule="nonzero"/>
	</g>
</svg>
