<svg width="18.000000" height="21.677490" viewBox="0 0 18 21.6775" fill="none" xmlns="http://www.w3.org/2000/svg" xmlns:xlink="http://www.w3.org/1999/xlink">
	<desc>
			Created with Pixso.
	</desc>
	<defs/>
	<rect id="bag-fill-frame" rx="0.000000" width="17.000000" height="20.000000" transform="translate(0.500000 1.177490)" fill="#FFFFFF" fill-opacity="0"/>
	<path id="bag-fill" d="M9 1.35C7.22 1.35 5.78 2.87 5.78 4.74L5.78 5.41L12.21 5.41L12.21 4.74C12.21 2.87 10.77 1.35 9 1.35ZM13.5 5.41L13.5 4.74C13.5 2.12 11.48 0 9 0C6.51 0 4.5 2.12 4.5 4.74L4.5 5.41L0 5.41L0 18.96C0 20.46 1.15 21.67 2.57 21.67L15.42 21.67C16.84 21.67 18 20.46 18 18.96L18 5.41L13.5 5.41Z" fill="#7D806A" fill-opacity="1.000000" fill-rule="evenodd"/>
</svg>
