<svg width="87.000000" height="87.000000" viewBox="0 0 87 87" fill="none" xmlns="http://www.w3.org/2000/svg" xmlns:xlink="http://www.w3.org/1999/xlink">
	<desc>
			Created with Pixso.
	</desc>
	<defs/>
	<circle id="Ellipse" cx="43.500000" cy="43.500000" r="43.500000" fill="#FFFFFF" fill-opacity="0"/>
	<circle id="Ellipse" cx="43.500000" cy="43.500000" r="42.500000" stroke="#7D806A" stroke-opacity="1.000000" stroke-width="2.000000" stroke-linejoin="round"/>
	<path id="Subtract" d="M29.52 61.98C29.31 63.14 30.46 64.05 31.48 63.53L43 57.61L54.52 63.53C55.54 64.05 56.68 63.14 56.48 61.98L54.3 49.56L63.55 40.75C64.41 39.93 63.96 38.42 62.81 38.26L49.95 36.43L44.22 25.07C43.7 24.05 42.3 24.05 41.78 25.07L36.05 36.43L23.19 38.26C22.03 38.42 21.59 39.93 22.45 40.75L31.7 49.56L29.52 61.98ZM42.39 54.71L32.72 59.68L34.54 49.3C34.63 48.81 34.46 48.31 34.11 47.97L26.48 40.7L37.12 39.19C37.56 39.13 37.94 38.84 38.15 38.43L43 28.83L47.85 38.43C48.05 38.84 48.44 39.13 48.88 39.19L59.52 40.7L51.88 47.97C51.53 48.31 51.37 48.81 51.46 49.3L53.28 59.68L43.61 54.71C43.22 54.52 42.78 54.52 42.39 54.71Z" fill="#7D806A" fill-opacity="1.000000" fill-rule="evenodd"/>
	<path id="Subtract" d="M31.48 63.53L43 57.61L54.52 63.53C55.54 64.05 56.68 63.14 56.48 61.98L54.3 49.56L63.55 40.75C64.41 39.93 63.96 38.42 62.81 38.26L49.95 36.43L44.22 25.07C43.7 24.05 42.3 24.05 41.78 25.07L36.05 36.43L23.19 38.26C22.03 38.42 21.59 39.93 22.45 40.75L31.7 49.56L29.52 61.98C29.31 63.14 30.46 64.05 31.48 63.53ZM32.72 59.68L34.54 49.3C34.63 48.81 34.46 48.31 34.11 47.97L26.48 40.7L37.12 39.19C37.56 39.13 37.94 38.84 38.15 38.43L43 28.83L47.85 38.43C48.05 38.84 48.44 39.13 48.88 39.19L59.52 40.7L51.88 47.97C51.53 48.31 51.37 48.81 51.46 49.3L53.28 59.68L43.61 54.71C43.22 54.52 42.78 54.52 42.39 54.71L32.72 59.68Z" stroke="#7D806A" stroke-opacity="1.000000" stroke-width="1.000000"/>
</svg>
