<svg width="91.000000" height="91.000000" viewBox="0 0 91 91" fill="none" xmlns="http://www.w3.org/2000/svg" xmlns:xlink="http://www.w3.org/1999/xlink">
	<desc>
			Created with Pixso.
	</desc>
	<defs/>
	<circle id="Ellipse" cx="45.500000" cy="45.500000" r="43.500000" fill="#FFFFFF" fill-opacity="0"/>
	<circle id="Ellipse" cx="45.500000" cy="45.500000" r="42.500000" stroke="#7D806A" stroke-opacity="1.000000" stroke-width="2.000000" stroke-linejoin="round"/>
	<path id="bag (Stroke)" d="M45.5 29.43C42.24 29.43 39.6 32.16 39.6 35.53L39.6 36.75L51.39 36.75L51.39 35.53C51.39 32.16 48.75 29.43 45.5 29.43ZM53.75 36.75L53.75 35.53C53.75 30.81 50.05 27 45.5 27C40.94 27 37.25 30.81 37.25 35.53L37.25 36.75L29 36.75L29 61.12C29 63.81 31.11 66 33.71 66L57.28 66C59.88 66 62 63.81 62 61.12L62 36.75L53.75 36.75ZM31.35 39.18L31.35 61.12C31.35 62.47 32.41 63.56 33.71 63.56L57.28 63.56C58.58 63.56 59.64 62.47 59.64 61.12L59.64 39.18L31.35 39.18Z" fill="#7D806A" fill-opacity="1.000000" fill-rule="evenodd"/>
	<path id="bag (Stroke)" d="M45.5 29.43C48.75 29.43 51.39 32.16 51.39 35.53L51.39 36.75L39.6 36.75L39.6 35.53C39.6 32.16 42.24 29.43 45.5 29.43ZM53.75 35.53C53.75 30.81 50.05 27 45.5 27C40.94 27 37.25 30.81 37.25 35.53L37.25 36.75L29 36.75L29 61.12C29 63.81 31.11 66 33.71 66L57.28 66C59.88 66 62 63.81 62 61.12L62 36.75L53.75 36.75L53.75 35.53ZM31.35 39.18L59.64 39.18L59.64 61.12C59.64 62.47 58.58 63.56 57.28 63.56L33.71 63.56C32.41 63.56 31.35 62.47 31.35 61.12L31.35 39.18Z" stroke="#7D806A" stroke-opacity="1.000000" stroke-width="1.000000"/>
</svg>
