<svg width="24.000000" height="24.000000" viewBox="0 0 24 24" fill="none" xmlns="http://www.w3.org/2000/svg" xmlns:xlink="http://www.w3.org/1999/xlink">
	<desc>
			Created with Pixso.
	</desc>
	<defs>
		<clipPath id="clip14_181">
			<rect id="Medium / Negative" rx="0.000000" width="23.000000" height="23.000000" transform="translate(0.500000 0.500000)" fill="white" fill-opacity="0"/>
		</clipPath>
	</defs>
	<rect id="Medium / Negative" rx="0.000000" width="23.000000" height="23.000000" transform="translate(0.500000 0.500000)" fill="#FFFFFF" fill-opacity="0"/>
	<g clip-path="url(#clip14_181)">
		<path id="Vector" d="M13.53 11.82C13.53 15.59 10.5 18.65 6.76 18.65C3.03 18.65 0 15.59 0 11.82C0 8.05 3.03 5 6.76 5C10.5 5 13.53 8.05 13.53 11.82Z" fill="#7D806A" fill-opacity="1.000000" fill-rule="nonzero"/>
		<path id="Vector" d="M20.96 11.82C20.96 15.37 19.44 18.25 17.57 18.25C15.7 18.25 14.19 15.37 14.19 11.82C14.19 8.27 15.7 5.39 17.57 5.39C19.44 5.39 20.96 8.27 20.96 11.82L20.96 11.82Z" fill="#7D806A" fill-opacity="1.000000" fill-rule="nonzero"/>
		<path id="Vector" d="M24 11.82C24 15 23.46 17.58 22.81 17.58C22.15 17.58 21.61 15 21.61 11.82C21.61 8.64 22.15 6.06 22.81 6.06C23.46 6.06 24 8.64 24 11.82Z" fill="#7D806A" fill-opacity="1.000000" fill-rule="nonzero"/>
	</g>
</svg>
