<svg width="91.000000" height="91.000000" viewBox="0 0 91 91" fill="none" xmlns="http://www.w3.org/2000/svg" xmlns:xlink="http://www.w3.org/1999/xlink">
	<desc>
			Created with Pixso.
	</desc>
	<defs/>
	<circle id="Ellipse" cx="45.500000" cy="45.500000" r="43.500000" fill="#FFFFFF" fill-opacity="0"/>
	<circle id="Ellipse" cx="45.500000" cy="45.500000" r="42.500000" stroke="#7D806A" stroke-opacity="1.000000" stroke-width="2.000000" stroke-linejoin="round"/>
	<path id="Vector (Stroke)" d="M34.56 33.46C34.56 30.44 37.01 28 40.03 28C43.05 28 45.5 30.44 45.5 33.46C45.5 30.44 47.94 28 50.96 28C53.98 28 56.43 30.44 56.43 33.46L56.43 33.48C56.43 33.63 56.43 34.07 56.35 34.56L60.81 34.56C62.02 34.56 63 35.54 63 36.75L63 41.12C63 42.33 62.02 43.31 60.81 43.31L60.81 59.71C60.81 61.53 59.34 63 57.53 63L33.46 63C31.65 63 30.18 61.53 30.18 59.71L30.18 43.31C28.97 43.31 28 42.33 28 41.12L28 36.75C28 35.54 28.97 34.56 30.18 34.56L34.64 34.56C34.56 34.07 34.56 33.63 34.56 33.48C34.56 33.47 34.56 33.47 34.56 33.46ZM36.89 34.56L43.31 34.56L43.31 33.46C43.31 31.65 41.84 30.18 40.03 30.18C38.21 30.18 36.75 31.65 36.75 33.46C36.75 33.65 36.75 34.06 36.84 34.41C36.86 34.47 36.88 34.52 36.89 34.56ZM47.68 34.56L54.1 34.56C54.11 34.52 54.13 34.47 54.15 34.41C54.24 34.06 54.25 33.65 54.25 33.46C54.25 31.65 52.78 30.18 50.96 30.18C49.15 30.18 47.68 31.65 47.68 33.46L47.68 34.56ZM30.18 36.75L30.18 41.12L43.31 41.12L43.31 36.75L30.18 36.75ZM47.68 36.75L47.68 41.12L60.81 41.12L60.81 36.75L47.68 36.75ZM58.62 43.31L47.68 43.31L47.68 60.81L57.53 60.81C58.13 60.81 58.62 60.32 58.62 59.71L58.62 43.31ZM43.31 60.81L43.31 43.31L32.37 43.31L32.37 59.71C32.37 60.32 32.86 60.81 33.46 60.81L43.31 60.81Z" fill="#7D806A" fill-opacity="1.000000" fill-rule="evenodd"/>
	<path id="Vector (Stroke)" d="M34.56 33.46C34.56 33.47 34.56 33.47 34.56 33.48C34.56 33.63 34.56 34.07 34.64 34.56L30.18 34.56C28.97 34.56 28 35.54 28 36.75L28 41.12C28 42.33 28.97 43.31 30.18 43.31L30.18 59.71C30.18 61.53 31.65 63 33.46 63L57.53 63C59.34 63 60.81 61.53 60.81 59.71L60.81 43.31C62.02 43.31 63 42.33 63 41.12L63 36.75C63 35.54 62.02 34.56 60.81 34.56L56.35 34.56C56.43 34.07 56.43 33.63 56.43 33.48L56.43 33.46C56.43 30.44 53.98 28 50.96 28C47.94 28 45.5 30.44 45.5 33.46C45.5 30.44 43.05 28 40.03 28C37.01 28 34.56 30.44 34.56 33.46ZM36.89 34.56C36.88 34.52 36.86 34.47 36.84 34.41C36.75 34.06 36.75 33.65 36.75 33.46C36.75 31.65 38.21 30.18 40.03 30.18C41.84 30.18 43.31 31.65 43.31 33.46L43.31 34.56L36.89 34.56ZM47.68 34.56L47.68 33.46C47.68 31.65 49.15 30.18 50.96 30.18C52.78 30.18 54.25 31.65 54.25 33.46C54.25 33.65 54.24 34.06 54.15 34.41C54.13 34.47 54.11 34.52 54.1 34.56L47.68 34.56ZM30.18 36.75L43.31 36.75L43.31 41.12L30.18 41.12L30.18 36.75ZM47.68 36.75L60.81 36.75L60.81 41.12L47.68 41.12L47.68 36.75ZM58.62 43.31L58.62 59.71C58.62 60.32 58.13 60.81 57.53 60.81L47.68 60.81L47.68 43.31L58.62 43.31ZM43.31 60.81L33.46 60.81C32.86 60.81 32.37 60.32 32.37 59.71L32.37 43.31L43.31 43.31L43.31 60.81Z" stroke="#7D806A" stroke-opacity="1.000000" stroke-width="1.000000"/>
</svg>
