<svg width="91.000000" height="91.000000" viewBox="0 0 91 91" fill="none" xmlns="http://www.w3.org/2000/svg" xmlns:xlink="http://www.w3.org/1999/xlink">
	<desc>
			Created with Pixso.
	</desc>
	<defs/>
	<circle id="Ellipse" cx="45.500000" cy="45.500000" r="43.500000" fill="#FFFFFF" fill-opacity="0"/>
	<circle id="Ellipse" cx="45.500000" cy="45.500000" r="42.500000" stroke="#7D806A" stroke-opacity="1.000000" stroke-width="2.000000" stroke-linejoin="round"/>
	<path id="Vector 111 (Stroke)" d="M45.97 28.53C45.67 28.42 45.32 28.42 45.02 28.53L29.73 34.38L45.5 40.41L61.26 34.38L45.97 28.53ZM63.43 36.19L46.78 42.56L46.78 61.96L63.43 55.59L63.43 36.19ZM44.21 61.96L44.21 42.56L27.56 36.19L27.56 55.59L44.21 61.96ZM44.07 26.26C44.98 25.91 46.01 25.91 46.92 26.26L65.19 33.24C65.68 33.43 66 33.88 66 34.38L66 55.59C66 56.59 65.36 57.5 64.38 57.87L45.97 64.91C45.67 65.02 45.32 65.02 45.02 64.91L26.61 57.87C25.63 57.5 25 56.59 25 55.59L25 34.38C25 33.88 25.31 33.43 25.8 33.24L44.07 26.26Z" fill="#7D806A" fill-opacity="1.000000" fill-rule="evenodd"/>
	<path id="Vector 111 (Stroke)" d="M45.97 28.53L61.26 34.38L45.5 40.41L29.73 34.38L45.02 28.53C45.32 28.42 45.67 28.42 45.97 28.53ZM63.43 36.19L63.43 55.59L46.78 61.96L46.78 42.56L63.43 36.19ZM44.21 61.96L27.56 55.59L27.56 36.19L44.21 42.56L44.21 61.96ZM44.07 26.26L25.8 33.24C25.31 33.43 25 33.88 25 34.38L25 55.59C25 56.59 25.63 57.5 26.61 57.87L45.02 64.91C45.32 65.02 45.67 65.02 45.97 64.91L64.38 57.87C65.36 57.5 66 56.59 66 55.59L66 34.38C66 33.88 65.68 33.43 65.19 33.24L46.92 26.26C46.01 25.91 44.98 25.91 44.07 26.26Z" stroke="#7D806A" stroke-opacity="1.000000" stroke-width="1.000000"/>
</svg>
